<svg xmlns="http://www.w3.org/2000/svg" viewBox="0 0 46 46"><path d="M6.946 40.12a1 1 0 001 1h32.16a1 1 0 100-2H8.946v-1.244c0-.013-.007-.023-.007-.035a2.996 2.996 0 001.894-1.81l7.128-.75a1 1 0 00.795-.557l8.414-17.288a1 1 0 10-1.799-.875L17.2 33.35l-6.351.669a2.996 2.996 0 00-1.822-1.836V16.998a1 1 0 10-2 0v15.184a2.996 2.996 0 00-2 2.816c0 1.278.807 2.364 1.936 2.796-.002.029-.017.053-.017.083v2.243m1.081-6.122a1.001 1.001 0 11-1 1c0-.551.449-1 1-1" fill="#548"/><path d="M42.762 2.973l-4.882.011C37.428 1.272 35.88 0 34.027 0c-2.206 0-4 1.794-4 4s1.794 4 4 4c1.865 0 3.421-1.287 3.863-3.02l4.874-.011c.712 0 1.291.579 1.291 1.291v36.445c0 .712-.579 1.291-1.291 1.291H3.291A1.292 1.292 0 012 42.705V12.996h37.03a1 1 0 100-2H2V6.26c0-.711.579-1.291 1.291-1.291h22.486a1 1 0 100-2H3.291A3.295 3.295 0 000 6.26v36.445a3.296 3.296 0 003.291 3.291h39.473a3.296 3.296 0 003.291-3.291V6.26a3.295 3.295 0 00-3.293-3.291m-8.735 3.03c-1.103 0-2-.897-2-2s.897-2 2-2 2 .897 2 2-.897 2-2 2" fill="#548"/></svg>