<svg xmlns="http://www.w3.org/2000/svg" viewBox="0 0 28 46"><path d="M27 34h-2.105l-2.102-18.913 3.083-5.605c.01-.019.014-.04.023-.06.013-.027.022-.053.032-.081a.985.985 0 00.064-.32C25.996 9.013 26 9.007 26 9V1a1 1 0 00-1-1h-4.4a1 1 0 00-1 1v2h-2.4V1a1 1 0 00-1-1h-4.4a1 1 0 00-1 1v2H8.4V1a1 1 0 00-1-1H3a1 1 0 00-1 1v8c0 .007.004.013.004.02a.961.961 0 00.065.32c.01.029.019.055.031.082.009.02.013.041.024.06l3.083 5.605L3.105 34H1a1 1 0 00-1 1v7a1 1 0 001 1h9c.047 0 .088-.021.134-.027.437 1.735 1.997 3.03 3.866 3.03 2.206 0 4-1.794 4-4s-1.794-4-4-4c-1.869 0-3.429 1.292-3.866 3.03-.046-.006-.087-.027-.134-.027H2v-5h24v5h-4.05a1 1 0 100 2H27a1 1 0 001-1v-7a1 1 0 00-1-1m-13 6c1.103 0 2 .897 2 2s-.897 2-2 2-2-.897-2-2 .897-2 2-2m-10-38h2.4v2a1 1 0 001 1h4.4a1 1 0 001-1v-2h2.4v2a1 1 0 001 1h4.4a1 1 0 001-1v-2H24v6H4v-6m19.309 8l-2.199 4H6.891l-2.199-4h18.617m-18.19 24l2-18h13.764l2 18H5.117" fill="#548"/></svg>