<svg xmlns="http://www.w3.org/2000/svg" viewBox="0 0 46 46"><path d="M38 13H6a1 1 0 100 2h32a1 1 0 100-2M36 20c-1.806 0-3.317 1.21-3.813 2.855h-5.374C26.317 21.21 24.803 20 23 20s-3.317 1.21-3.813 2.855h-5.374C13.317 21.21 11.803 20 10 20c-2.206 0-4 1.794-4 4s1.794 4 4 4a4.004 4.004 0 003.903-3.145h5.194C19.491 26.65 21.088 28 23 28s3.509-1.35 3.903-3.145h5.194A4.004 4.004 0 0036 28c2.206 0 4-1.794 4-4s-1.794-4-4-4m-26 6c-1.103 0-2-.897-2-2s.897-2 2-2 2 .897 2 2-.897 2-2 2m13 0c-1.103 0-2-.897-2-2 0-.029.007-.057.009-.086.001-.021.012-.038.012-.059 0-.007-.004-.013-.004-.019A1.996 1.996 0 0123 22c1.103 0 2 .897 2 2s-.897 2-2 2m13 0c-1.103 0-2-.897-2-2s.897-2 2-2 2 .897 2 2-.897 2-2 2M36 32c-1.809 0-3.323 1.214-3.816 2.865h-5.368C26.323 33.214 24.806 32 23 32c-1.859 0-3.411 1.28-3.858 3h-5.284c-.447-1.72-1.999-3-3.858-3-2.206 0-4 1.794-4 4s1.794 4 4 4c1.859 0 3.411-1.28 3.858-3h5.284c.447 1.72 1.999 3 3.858 3a4.003 4.003 0 003.9-3.135h5.2A4.003 4.003 0 0036 40c2.206 0 4-1.794 4-4s-1.794-4-4-4m-26 6c-1.103 0-2-.897-2-2s.897-2 2-2 2 .897 2 2-.897 2-2 2m13 0c-1.103 0-2-.897-2-2s.897-2 2-2 2 .897 2 2-.897 2-2 2m13 0c-1.103 0-2-.897-2-2s.897-2 2-2 2 .897 2 2-.897 2-2 2" fill="#548"/><path d="M42.639 2.999H34a1 1 0 100 2h8.639c.751 0 1.361.6 1.361 1.336v36.33c0 .736-.61 1.336-1.361 1.336H3.359c-.751 0-1.361-.6-1.361-1.336V6.335c0-.737.61-1.336 1.361-1.336h15.78c.448 1.721 2 3 3.859 3 2.206 0 4-1.794 4-4s-1.794-4-4-4c-1.858 0-3.41 1.279-3.858 2.999H3.359c-1.853 0-3.361 1.497-3.361 3.336v36.33c0 1.84 1.508 3.336 3.361 3.336h39.28c1.854 0 3.362-1.496 3.362-3.336V6.334c0-1.839-1.508-3.336-3.361-3.336m-19.639-.999c1.103 0 2 .897 2 2s-.897 2-2 2a1.998 1.998 0 01-1.991-1.91c.003-.031.018-.058.018-.091 0-.032-.015-.059-.018-.09a1.998 1.998 0 011.991-1.909" fill="#548"/></svg>