<svg xmlns="http://www.w3.org/2000/svg" viewBox="0 0 42 46"><path d="M39 6h-5.08c-.488-3.386-3.401-6-6.92-6-3.859 0-7 3.141-7 7s3.141 7 7 7c3.519 0 6.432-2.614 6.92-6H39c.552 0 1 .404 1 .9v34.2c0 .496-.448.9-1 .9H3c-.552 0-1-.404-1-.9V8.9c0-.496.448-.9 1-.9h9.185a1 1 0 100-2H3C1.346 6 0 7.301 0 8.9v34.2C0 44.7 1.346 46 3 46h36c1.654 0 3-1.301 3-2.9V8.9C42 7.301 40.654 6 39 6m-12 6c-2.757 0-5-2.243-5-5s2.243-5 5-5 5 2.243 5 5-2.243 5-5 5" fill="#548"/><path d="M11.519 35.35a.997.997 0 001.414 0l8.165-8.165a.999.999 0 000-1.414l-8.165-8.166a.999.999 0 10-1.414 1.414l7.458 7.459-7.458 7.458a.999.999 0 000 1.414M29.774 36a1 1 0 100-2h-6a1 1 0 100 2h6" fill="#548"/></svg>