<svg xmlns="http://www.w3.org/2000/svg" viewBox="0 0 46 46"><path d="M19 5h26a1 1 0 100-2H19a1 1 0 100 2M19 9h14a1 1 0 100-2H19a1 1 0 100 2M5.57 9.196l.01.009c.061.055.133.086.202.123.038.021.072.054.113.069a.984.984 0 00.751-.016c.038-.016.066-.051.102-.072.083-.049.167-.093.235-.166l2.714-2.926a1 1 0 10-1.467-1.36L6.187 7.06l-.453-.409a1 1 0 10-1.34 1.484L5.57 9.196" fill="#548"/><path d="M7 14c3.859 0 7-3.141 7-7s-3.141-7-7-7-7 3.141-7 7 3.141 7 7 7M7 2c2.757 0 5 2.243 5 5s-2.243 5-5 5-5-2.243-5-5 2.243-5 5-5M45 20H19a1 1 0 100 2h26a1 1 0 100-2M19 26h14a1 1 0 100-2H19a1 1 0 100 2M8.23 20.857L6.187 23.06l-.453-.409a.999.999 0 10-1.34 1.484l1.176 1.06.01.009c.061.055.133.086.202.123.039.021.072.053.113.069a.992.992 0 00.751-.016c.038-.016.066-.051.102-.072.082-.048.167-.092.235-.166l2.714-2.926a1 1 0 10-1.467-1.359" fill="#548"/><path d="M7.01 16c-3.859 0-7 3.141-7 7s3.141 7 7 7 7-3.141 7-7-3.141-7-7-7m0 12c-2.757 0-5-2.243-5-5s2.243-5 5-5 5 2.243 5 5-2.243 5-5 5M8.23 36.857L6.187 39.06l-.453-.409a1 1 0 10-1.34 1.484l1.176 1.06.01.009c.061.055.133.086.202.123.039.021.072.053.113.069a.992.992 0 00.751-.016c.038-.016.066-.051.102-.072.082-.048.167-.092.235-.166l2.714-2.926a1 1 0 10-1.467-1.359" fill="#548"/><path d="M7.01 32c-3.859 0-7 3.141-7 7s3.141 7 7 7 7-3.141 7-7-3.141-7-7-7m0 12c-2.757 0-5-2.243-5-5s2.243-5 5-5 5 2.243 5 5-2.243 5-5 5M45 37H19a1 1 0 100 2h26a1 1 0 100-2M33 41H19a1 1 0 100 2h14a1 1 0 100-2" fill="#548"/></svg>