<svg xmlns="http://www.w3.org/2000/svg" viewBox="0 0 46 46"><path d="M17.16 19.687a.995.995 0 00-1.366-.364l-6.586 3.812a.999.999 0 000 1.73l6.586 3.812a.998.998 0 001.366-.364 1 1 0 00-.364-1.366L11.705 24l5.091-2.947a1 1 0 00.364-1.366M28.842 28.313a1 1 0 001.366.364l6.586-3.812a1 1 0 000-1.73l-6.586-3.812a1 1 0 00-1.002 1.73L34.297 24l-5.091 2.947a1 1 0 00-.364 1.366M24.997 15.03L19.11 32.323a1 1 0 001.892.645l5.887-17.293a1 1 0 00-1.892-.645" fill="#548"/><path d="M44.33 14.374a1 1 0 00-1.854.75A20.892 20.892 0 0144.003 23c0 11.579-9.421 21-21 21s-21-9.421-21-21 9.421-21 21-21c4.253 0 8.303 1.265 11.788 3.639a3.971 3.971 0 00.384 5.189c.755.756 1.76 1.172 2.828 1.172s2.073-.416 2.828-1.172c.756-.755 1.172-1.76 1.172-2.828s-.416-2.073-1.172-2.828c-1.145-1.146-2.936-1.419-4.394-.827A22.8 22.8 0 0023.003 0c-12.683 0-23 10.317-23 23s10.317 23 23 23 23-10.317 23-23c0-2.981-.562-5.884-1.673-8.626m-4.913-7.788c.378.378.586.88.586 1.414s-.208 1.036-.586 1.414c-.756.756-2.072.756-2.828 0-.378-.378-.586-.88-.586-1.414s.208-1.036.586-1.414S37.469 6 38.003 6s1.036.208 1.414.586" fill="#548"/></svg>