<svg xmlns="http://www.w3.org/2000/svg" xmlns:xlink="http://www.w3.org/1999/xlink" viewBox="0 0 34 46"><path d="M11 13.598V16H9.638C8.734 16 8 16.778 8 17.734v12.532C8 31.222 8.734 32 9.638 32h2.294c.084 0 .159-.028.238-.048A2.993 2.993 0 0015 34c1.654 0 3-1.346 3-3s-1.346-3-3-3c-1.32 0-2.43.862-2.831 2.048-.078-.02-.153-.048-.237-.048H10V18h14v12h-1.929a1 1 0 100 2h2.291c.904 0 1.638-.778 1.638-1.734V17.734c0-.956-.734-1.734-1.638-1.734H23v-2.402a3.765 3.765 0 00-3.761-3.76H14.76a3.765 3.765 0 00-3.76 3.76M15 30a1.001 1.001 0 11-1 1c0-.551.448-1 1-1m6-16.402v2.24h-8v-2.24c0-.971.79-1.76 1.761-1.76h4.479c.97 0 1.76.789 1.76 1.76" id="a" stroke="none" fill="#548" stroke-width="1"/><path d="M18.206 21.789l-2.029 2.186-.448-.403a.999.999 0 10-1.338 1.485l1.166 1.051.002.002.003.002.009.008c.057.052.126.08.191.117.042.023.079.058.123.075a.993.993 0 00.752-.016c.044-.019.077-.058.118-.083.076-.047.156-.086.219-.154l2.699-2.909a1 1 0 00-1.467-1.361" id="b" stroke="none" fill="#548" stroke-width="1"/><path d="M33.34 5.927L17.34.06a1.007 1.007 0 00-.689 0l-16 5.867c-.394.145-.656.52-.656.939V27.4c0 3.184.798 6.02 4.693 9.542 2.731 2.465 6.961 5.71 10.523 8.07l1.23.816a1 1 0 001.109 0l1.218-.81c3.565-2.365 7.799-5.612 10.534-8.08 3.895-3.517 4.693-6.359 4.693-9.542V6.862c0-.419-.262-.794-.655-.939m-1.345 21.473c0 2.796-.66 5.01-4.03 8.06-2.669 2.408-6.809 5.583-10.299 7.898l-.668.444-.677-.449c-3.489-2.315-7.625-5.488-10.29-7.893-3.373-3.047-4.03-5.262-4.03-8.06V7.561l15-5.5 15 5.5v19.835" id="c" stroke="none" fill="#548" stroke-width="1"/><use xlink:href="#a" fill="#548"/><use xlink:href="#b" fill="#548"/><use xlink:href="#c" fill="#548"/></svg>