<svg xmlns="http://www.w3.org/2000/svg" viewBox="0 0 46 46"><path d="M34.437 29.27a4 4 0 10-2.874 7.466 4 4 0 002.874-7.466m-.626 5.559c-.001 0-.001 0 0 0a1.99 1.99 0 01-1.53.039 2 2 0 112.547-2.676 2 2 0 01-1.017 2.637" fill="#548"/><path d="M45.43 34.737a.463.463 0 00-.038-.021l-.009-.005-1.924-1.066a13.48 13.48 0 00-.045-1.717l.062-.144c.301-.187.604-.37.907-.554l.993-.604a1 1 0 00.434-1.149 16.222 16.222 0 00-1.579-3.546.878.878 0 00-.091-.126.999.999 0 00-1.087-.365l-.467.137c-.532.156-1.063.312-1.595.472-.082.022-.119.02-.165-.022a15.49 15.49 0 00-1.309-1.244c.159-.694.332-1.385.507-2.083.02-.081.031-.162.033-.242a1.002 1.002 0 00-.521-1.036 16.333 16.333 0 00-3.629-1.394 1.022 1.022 0 00-1.121.49l-.052.092-1.013 1.861-.078.063c-.614-.018-1.226-.002-1.884.005-.38-.603-.747-1.214-1.114-1.824a1.1 1.1 0 00-1.361-.478l-.48.177c-.339.124-.678.247-1.013.383-.563.228-1.153.524-1.801.904a1.128 1.128 0 00-.461.486.998.998 0 00-.098.744l.64 2.159c0 .023.001.041-.063.099-.384.343-.757.736-1.176 1.235l-.135.039-2.157-.521a.999.999 0 00-1.116.504 5.708 5.708 0 00-.181.389l-.115.25a.92.92 0 00-.047.111c-.479 1.023-.824 1.963-1.055 2.872a.98.98 0 00.018.535c.073.291.265.54.542.687l1.852 1c.074.04.094.067.099.138a22.39 22.39 0 00.013 1.775c-.271.173-.546.339-.82.505l-1.097.667a1.024 1.024 0 00-.477.8c-.009.075-.01.151-.002.227.007.065.022.145.041.207.033.105.072.208.113.31l.048.124.034.104.05.125a15.985 15.985 0 001.287 2.8c.2.339.652.666 1.266.481l.512-.152c.518-.154 1.035-.309 1.625-.454.42.438.871.866 1.342 1.319l-.519 2.137c-.067.279-.005.574.155.808.161.265.398.395.499.45a16.07 16.07 0 002.43 1.014c.226.072.455.137.685.201l.229.064a1.08 1.08 0 001.296-.521c.289-.537.582-1.073.875-1.609l.145-.265.104-.075c.63.018 1.206.005 1.774-.046l.105.063c.138.221.273.443.409.666l.749 1.227c.238.39.713.565 1.146.434a16.423 16.423 0 003.555-1.575c.308-.184.475-.563.469-.93a1.08 1.08 0 00-.042-.339c-.166-.552-.33-1.105-.493-1.659l-.123-.423c.407-.393.814-.817 1.211-1.265l.184-.13 2.137.516a1 1 0 001.117-.504 16.323 16.323 0 001.398-3.623c.111-.435-.142-.924-.537-1.146m-24.07 2.151l.127-.068.015.023-.142.045m.78-9.24l-.137-.07.143.047-.006.023m21 10.233l-1.401-.338a2.123 2.123 0 00-1.024.007 1.01 1.01 0 00-.333.154l-.506.359a1.053 1.053 0 00-.172.155c-.386.438-.781.853-1.174 1.232a1.996 1.996 0 00-.522 2.045l.114.386c.1.338.199.676.3 1.013-.556.292-1.133.548-1.727.766l-.331-.541c-.14-.23-.279-.46-.421-.687-.438-.702-1.163-1.07-1.974-.996-.491.041-1 .055-1.542.038-.812.013-1.522.384-1.921 1.116l-.145.265-.532.977a13.548 13.548 0 01-1.762-.677l.346-1.418c.041-.177.062-.359.062-.572a1.987 1.987 0 00-.697-1.451c-.424-.367-.83-.753-1.21-1.149-.542-.562-1.292-.758-2.064-.539-.467.134-.934.273-1.4.412-.271-.53-.521-1.11-.756-1.762l.413-.25c.289-.175.578-.35.863-.531.544-.348.877-.886.943-1.574a1.89 1.89 0 00.001-.353 10.703 10.703 0 01-.036-1.455c.033-.859-.375-1.562-1.149-1.979l-1.221-.66c.181-.564.415-1.154.711-1.789l1.358.328c.822.196 1.594-.059 2.13-.699.357-.425.668-.752.979-1.032.496-.446.748-1.017.723-1.719a2.344 2.344 0 00-.076-.42l-.422-1.428c.343-.183.66-.332.973-.458.253-.102.507-.196.763-.29.252.417.506.832.765 1.243a2.037 2.037 0 001.914.968 14.975 14.975 0 011.607-.04 2.07 2.07 0 001.887-1.101l.685-1.257c.6.186 1.188.413 1.764.679-.122.493-.242.987-.356 1.484a2.266 2.266 0 00-.051.535c.029.576.287 1.084.744 1.47.397.335.768.687 1.101 1.045.581.625 1.365.828 2.206.575.433-.13.865-.258 1.298-.385.299.562.562 1.149.785 1.756l-.305.185c-.309.187-.616.374-.924.564-.471.292-.791.717-.947 1.319l-.033.189c-.004.025-.01.084-.013.11a2.03 2.03 0 00-.007.351c.044.529.057 1.025.037 1.525-.003.112.008.214.027.355.089.649.469 1.188 1.072 1.52l1.258.684a14.471 14.471 0 01-.675 1.74m1.752-2.266h-.003l.014-.024-.011.024M13.08 9a3.908 3.908 0 00-2.852 1.116 4.004 4.004 0 00-.111 5.655 3.973 3.973 0 002.805 1.227l.081.001c1.038 0 2.02-.395 2.771-1.117a4.005 4.005 0 00.111-5.656A3.98 3.98 0 0013.08 9m1.306 5.441a2 2 0 01-2.771-2.884 2.002 2.002 0 012.828.056 2.003 2.003 0 01-.057 2.828" fill="#548"/><path d="M21.669 22.666c.016-.013.094-.08.108-.094.31-.288.602-.597.936-.955.046-.045.091-.091.135-.14l.224-.251c.082-.085.163-.17.238-.263a.998.998 0 00.035-1.217l-1.289-1.753-.014-.115c.291-.567.503-1.054.721-1.613l2.192-.248a1 1 0 00.709-.463c.092-.129.17-.299.2-.519.1-.746.143-1.374.135-1.975-.005-.349-.021-.696-.037-1.044l-.023-.514V11.5c-.022-.559-.411-.987-1.014-1.074a41.036 41.036 0 01-2.061-.333c-.183-.554-.401-1.112-.622-1.734l1.294-1.622.066-.085a1 1 0 00.015-1.219 15.88 15.88 0 00-2.635-2.748c-.301-.248-.758-.261-1.112-.092a1.17 1.17 0 00-.249.137c-.558.419-1.116.838-1.71 1.229a14.39 14.39 0 00-1.62-.705.328.328 0 01-.024-.107c-.051-.488-.105-.977-.161-1.465l-.063-.57a.535.535 0 00-.041-.227 1.004 1.004 0 00-.624-.663l-.016-.006a1.044 1.044 0 00-.226-.06A15.99 15.99 0 0011.334.08a1 1 0 00-.89.844l-.168 1.116c-.052.346-.103.692-.175 1.088l-.041.028c-.556.181-1.096.393-1.66.603L6.683 2.385c-.293-.223-.696-.247-1.029-.102l-.037.017a.964.964 0 00-.244.163c-.977.75-1.864 1.61-2.641 2.561A.998.998 0 002.7 6.247l1.27 1.744-.04.182a13.14 13.14 0 00-.634 1.53.554.554 0 00-.074.038l-2.081.23a.992.992 0 00-.177.036 1 1 0 00-.81.844 15.958 15.958 0 00-.074 3.81 1 1 0 00.845.89l1.08.164 1.144.215c.169.529.375 1.06.631 1.622l-.024.101-1.311 1.638c-.271.34-.371.897.014 1.375l.15.188c.146.184.293.368.447.549a15.879 15.879 0 001.729 1.721l.083.068c.098.077.266.21.503.277.307.107.653.06.921-.139l1.761-1.301c.543.268 1.101.513 1.675.771.059.496.112.993.167 1.49l.064.596c.061.646.544.937.936.988.616.083 1.262.125 1.973.125.312 0 .637-.008.977-.024.056 0 .115 0 .178-.003l.295-.019c.096-.002.191-.005.269-.013a1.07 1.07 0 00.444-.138 1 1 0 00.527-.737l.181-1.195c.048-.328.096-.655.182-1.017a13.237 13.237 0 001.625-.639.317.317 0 01.088.055l1.599 1.285c.197.162.435.246.676.249.23.02.469-.053.662-.2.362-.276.702-.581 1.098-.937m-1.4-1.434c-.115.104-.23.209-.348.312l-1.034-.831c-.678-.547-1.476-.65-2.243-.288-.454.212-.888.382-1.326.52a2.294 2.294 0 00-.421.188c-.526.3-.874.803-.979 1.416-.06.342-.11.686-.16 1.03l-.06.398c-.657.033-1.262.03-1.828-.012-.051-.467-.103-.935-.157-1.403-.096-.786-.564-1.396-1.285-1.673-.5-.192-1-.412-1.49-.654a1.986 1.986 0 00-2.101.205l-1.127.833a14.032 14.032 0 01-1.135-1.17c-.037-.044-.075-.088-.111-.133l.854-1.07c.515-.646.617-1.44.281-2.177a12.76 12.76 0 01-.548-1.407c-.25-.77-.856-1.286-1.663-1.415l-1.374-.208c-.027-.605-.016-1.21.035-1.81l1.394-.154a2.3 2.3 0 00.548-.131c.119-.047.232-.104.338-.17.036-.021.072-.043.102-.064.307-.222.544-.532.685-.897.193-.5.418-1.015.667-1.528.034-.072.059-.147.077-.225l.126-.578A1.03 1.03 0 006 7.79a2.114 2.114 0 00-.391-.963l-.824-1.121a14.07 14.07 0 011.293-1.244l1.077.863a2.03 2.03 0 001.787.396c.12-.031.237-.065.359-.123a12.37 12.37 0 011.384-.542 2.063 2.063 0 00.397-.188l.19-.122a.955.955 0 00.091-.066c.395-.321.647-.767.73-1.29.057-.353.108-.705.161-1.058l.047-.319a13.983 13.983 0 011.833.039c.049.434.098.868.144 1.302.09.865.576 1.501 1.369 1.792.45.164.894.358 1.356.593.529.27 1.09.31 1.68.094.155-.066.293-.143.424-.236.396-.285.789-.576 1.181-.869.447.409.865.845 1.251 1.303l-.864 1.084c-.506.638-.608 1.418-.281 2.141.219.483.411.975.572 1.463.246.744.834 1.245 1.615 1.374.458.075.917.145 1.392.214.013.259.023.518.026.777.004.324-.01.661-.043 1.033l-1.424.16c-.15.017-.289.053-.474.113-.592.224-1.02.673-1.236 1.3a9.913 9.913 0 01-.559 1.273c-.378.734-.313 1.539.177 2.208l.802 1.089-.046.046c-.253.274-.508.547-.796.812l-.131.114" fill="#548"/></svg>