<svg xmlns="http://www.w3.org/2000/svg" viewBox="0 0 42 46"><path d="M18.997 38c-1.843 0-3.383 1.259-3.845 2.958-.052-.007-.098-.03-.152-.03H5.48c-1.919 0-3.48-1.669-3.48-3.72V8.648c0-2.051 1.562-3.72 3.48-3.72h5.779L9.948 6.239a.999.999 0 101.414 1.414l2.974-2.973a1 1 0 000-1.414L11.362.293a.999.999 0 10-1.414 1.414l1.221 1.221H5.48C2.46 2.928 0 5.494 0 8.648v28.561c0 3.154 2.459 5.72 5.48 5.72H15c.039 0 .072-.018.11-.022A4 4 0 0018.997 46c2.206 0 4-1.794 4-4s-1.794-4-4-4m0 6c-1.103 0-2-.897-2-2s.897-2 2-2 2 .897 2 2-.897 2-2 2M36.2 2.928h-9.367C26.361 1.245 24.833 0 22.997 0c-2.206 0-4 1.794-4 4s1.794 4 4 4a3.998 3.998 0 003.88-3.072H36.2c2.095 0 3.8 1.686 3.8 3.757v28.19c0 2.234-1.603 4.053-3.571 4.053h-5.801l1.167-1.167a.999.999 0 10-1.414-1.414l-2.973 2.973a.999.999 0 000 1.414l2.973 2.974a.997.997 0 001.414-.001.999.999 0 000-1.414l-1.365-1.365h5.998c3.072 0 5.571-2.715 5.571-6.05V8.688C42 5.514 39.398 2.931 36.2 2.931M22.997 6.003c-1.103 0-2-.897-2-2s.897-2 2-2 2 .897 2 2-.897 2-2 2" fill="#548"/><path d="M34 24.488a1 1 0 00-1-1h-5.914l-2.928-8.68a1.002 1.002 0 00-.918-.68.971.971 0 00-.956.624l-5.569 13.753-2.755-4.537a.998.998 0 00-.854-.481H9a1 1 0 100 2h3.543l3.497 5.759a1 1 0 001.781-.143l5.305-13.1 2.295 6.804a1 1 0 00.947.68H33a.998.998 0 001-.999" fill="#548"/></svg>